<mxfile host="app.diagrams.net" modified="2022-06-27T07:05:25.209Z" agent="5.0 (Macintosh; Intel Mac OS X 10_15_7) AppleWebKit/537.36 (KHTML, like Gecko) Chrome/102.0.0.0 Safari/537.36" etag="RtU7CTFHzVRH_PYUTjer" version="20.0.1" type="github">
  <diagram id="c67HvK3yJRHSkSlGjvkI" name="Page-1">
    <mxGraphModel dx="4665" dy="2440" grid="1" gridSize="10" guides="1" tooltips="1" connect="1" arrows="1" fold="1" page="1" pageScale="1" pageWidth="850" pageHeight="1100" math="0" shadow="0">
      <root>
        <mxCell id="0" />
        <mxCell id="1" parent="0" />
        <mxCell id="sqzacMQcEgvUsnoG2NAQ-1" value="s" style="rounded=0;whiteSpace=wrap;html=1;dashed=1;" vertex="1" parent="1">
          <mxGeometry x="-910" y="-160" width="2680" height="1270" as="geometry" />
        </mxCell>
        <mxCell id="sqzacMQcEgvUsnoG2NAQ-2" value="" style="rounded=0;whiteSpace=wrap;html=1;dashed=1;" vertex="1" parent="1">
          <mxGeometry x="-40" y="-160" width="1120" height="650" as="geometry" />
        </mxCell>
        <mxCell id="sqzacMQcEgvUsnoG2NAQ-3" value="" style="rounded=0;whiteSpace=wrap;html=1;dashed=1;" vertex="1" parent="1">
          <mxGeometry x="-40" y="490" width="1120" height="620" as="geometry" />
        </mxCell>
        <mxCell id="sqzacMQcEgvUsnoG2NAQ-4" value="" style="rounded=0;whiteSpace=wrap;html=1;dashed=1;" vertex="1" parent="1">
          <mxGeometry x="1080" y="-160" width="370" height="1270" as="geometry" />
        </mxCell>
        <mxCell id="sqzacMQcEgvUsnoG2NAQ-5" value="" style="rounded=0;whiteSpace=wrap;html=1;dashed=1;" vertex="1" parent="1">
          <mxGeometry x="1450" y="-160" width="320" height="1270" as="geometry" />
        </mxCell>
        <mxCell id="sqzacMQcEgvUsnoG2NAQ-6" value="" style="rounded=0;whiteSpace=wrap;html=1;dashed=1;" vertex="1" parent="1">
          <mxGeometry x="-910" y="-160" width="870" height="420" as="geometry" />
        </mxCell>
        <mxCell id="sqzacMQcEgvUsnoG2NAQ-7" value="" style="rounded=0;whiteSpace=wrap;html=1;dashed=1;" vertex="1" parent="1">
          <mxGeometry x="-910" y="260" width="870" height="430" as="geometry" />
        </mxCell>
        <mxCell id="sqzacMQcEgvUsnoG2NAQ-8" value="" style="rounded=0;whiteSpace=wrap;html=1;dashed=1;" vertex="1" parent="1">
          <mxGeometry x="-910" y="690" width="870" height="420" as="geometry" />
        </mxCell>
        <mxCell id="sqzacMQcEgvUsnoG2NAQ-9" value="" style="rounded=0;whiteSpace=wrap;html=1;dashed=1;" vertex="1" parent="1">
          <mxGeometry x="-29" y="-130" width="1089" height="610" as="geometry" />
        </mxCell>
        <mxCell id="sqzacMQcEgvUsnoG2NAQ-10" value="" style="rounded=0;whiteSpace=wrap;html=1;dashed=1;" vertex="1" parent="1">
          <mxGeometry x="-8" y="-98.1" width="678" height="348.86" as="geometry" />
        </mxCell>
        <mxCell id="sqzacMQcEgvUsnoG2NAQ-11" value="" style="verticalLabelPosition=bottom;verticalAlign=top;html=1;shape=mxgraph.basic.rect;fillColor2=none;strokeWidth=1;size=20;indent=5;dashed=1;fontSize=12;fillColor=none;" vertex="1" parent="1">
          <mxGeometry x="-5.64" y="262.53" width="675.64" height="199.35" as="geometry" />
        </mxCell>
      </root>
    </mxGraphModel>
  </diagram>
</mxfile>
